<svg xmlns="http://www.w3.org/2000/svg" viewBox="0 0 1093.39 1093.39"><defs><style>.cls-1,.cls-2{fill:#00ae81;}.cls-2{fill-rule:evenodd;}</style></defs><title>Asset 93</title><g id="Layer_2" data-name="Layer 2"><g id="Layer_1-2" data-name="Layer 1"><path class="cls-1" d="M436.63,602.07a6.24,6.24,0,1,0-9.83-7.69c-24.87,31.76-12.43,79.21-1.43,121.18,3.29,12.55,6.45,24.59,8.37,35.56l6.17-1.08-6.17,1.09a6.23,6.23,0,0,0,2.19,3.75l4.63,4-17.85,0,1-4.86h0a6.29,6.29,0,0,0-2.13-6.1l-14.56-14.09c-4.3-8.93-9.09-17.63-13.77-26.13C375,674.43,358.52,644.48,381,611.37l-5.16-3.5,5.18,3.52a6.74,6.74,0,0,0,.56-1c2-3.76,12.3-24.28,4-41a6.25,6.25,0,0,0-11.21,5.53c5.6,11.29-2.19,26.62-3.7,29.4l0,0h0l-.13.25C344,644,362.15,677,382.33,713.7c4.67,8.48,9.45,17.17,13.8,26.28a6.13,6.13,0,0,0,1.4,2h0l13.25,12.82L409,763.35a6.06,6.06,0,0,0-.25,1.72,6.27,6.27,0,0,0,6.25,6.28l0-6.27v6.24l41.72.12a6.27,6.27,0,0,0,4.67-11l-4.11,4.73,4.11-4.73-15.75-13.71c-2-10.54-5-22.2-8.21-34.33C427.19,673.25,415.58,629,436.63,602.07Z"/><path class="cls-1" d="M676.38,363.63a6.25,6.25,0,1,0-4.16-11.79c-20.78,7.37-46,12.17-71.11,14-24.79,1.76-49.35.59-69.32-3.93C456.26,344.77,418.2,344.75,418,344.75v0h0c-47.93,0-81.13,8.82-104,21.94-31.24,17.94-43.3,43.76-47.18,66.55a119,119,0,0,0,2.31,49C270,487.11,282,558.4,287,576.41c-4,10.65-21.87,60.76-19.75,94.55h0v79.12a6.22,6.22,0,0,0,.95,3.31l5.34,10.68L268,774.61l5.53,2.91L268,774.61a6.26,6.26,0,0,0,2.62,8.46,6.34,6.34,0,0,0,3,.72h51.26a6.27,6.27,0,0,0,3.3-11.59,53.47,53.47,0,0,1-13.49-14.54c-1.55-11.39-.63-27.35,1.92-44.92a435.85,435.85,0,0,1,13.39-60,55,55,0,0,0,10.58-6.5c13.77-10.58,25.54-28.16,33.72-43.46a152.77,152.77,0,0,0,8.74-19.5c47.67,44.73,163.26,12.17,192.89,3.81,2-.56-1.74-5.78.7-3.33,7,6.94,14.26,24.8,20.31,44.63,7.85,25.73,13.36,54.29,13.36,67.25v56.24a6.3,6.3,0,0,0,.82,3.11l4.64,10.43-4.75,9.2h0a6.27,6.27,0,0,0,5.64,9.14H659a6.27,6.27,0,0,0,5-10l-10.19-15.08c5.79-19,8.91-39.38,12-59.46,4.84-31.68,9.56-62.58,24.22-83.53,13-18.53,26.27-30.83,38.66-42.28,30.58-28.25,55.85-51.61,61.24-146.07a6.25,6.25,0,1,0-12.48-.69c-5.1,89.39-28.69,111.19-57.23,137.56-12.83,11.85-26.61,24.59-40.42,44.33-16.38,23.42-21.31,55.71-26.37,88.82-3.13,20.53-6.32,41.39-12.25,60a6.26,6.26,0,0,0,.61,5.88h0l5.44,8H626.83l1.19-2.32a6.27,6.27,0,0,0,.38-5.8h0l-5.55-12.48v-55c0-13.9-5.75-44-14-70.87-6.59-21.58-14.9-41.38-23.39-49.87-2.71-2.72-6.44-1.68-12.94.15-29.63,8.36-150,42.28-186.74-7.33q-.15-.22-.33-.45h0a6.26,6.26,0,0,0-10.76,6.17c-.18,1.12-4.65,10.75-11.44,23.46-7.52,14.07-18.19,30.11-30.34,39.46a40.5,40.5,0,0,1-9.78,5.72,6.23,6.23,0,0,0-4.28,4.19l6,1.84-6-1.82A449.69,449.69,0,0,0,304.22,711c-2.78,19.15-3.7,36.73-1.81,49.39a6.37,6.37,0,0,0,.76,2.38l5.48-3-5.46,3a55.07,55.07,0,0,0,5.92,8.52H283.89l2-3.81a6.29,6.29,0,0,0,.28-6.1h0l-6.35-12.7V671h0c0-.15,0-.29,0-.43h0c-2.26-33.37,17.43-85.79,19.5-91.2a6.28,6.28,0,0,0,.27-4.77h0c-4.17-11.95-17-88.17-18-94.26a6.48,6.48,0,0,0-.24-1.21h0a104.18,104.18,0,0,1-2.06-43.82c3.35-19.73,13.84-42.12,41.06-57.74,21.13-12.13,52.26-20.28,97.78-20.28v0c1,0,37.64.21,111,16.82,21.21,4.8,47.05,6.07,72.94,4.23,26.18-1.86,52.55-6.9,74.39-14.65ZM374.75,573.38h0l5.52-2h0Z"/><path class="cls-1" d="M674.43,360.44c-8.89-.75-23.8-2.44-34-5.94-4.69-1.61-8.62-3.71-11.07-6.43-3.69-4.1-4.43-8.8-.84-14.17,2.35-3.52,7.15-7.31,15.22-11.34,23.51-11.75,35.15-8.71,40.69-1,16.22-9.17,57.86-25.95,102,10.29a6.27,6.27,0,0,1,2.62,3.75l0,0a215.62,215.62,0,0,1,4.79,28.58c2.28,22.47,1.41,47.26-5.13,67.8-6.88,21.63-19.94,38.61-42,43.92a58.5,58.5,0,0,1-7.89,1.33,35.09,35.09,0,0,1-10.12-.41c-16.54-3.09-29.2-17.75-38.12-36.57-8.42-17.8-13.62-39.55-15.52-58.26a139,139,0,0,1-.64-21.58Zm-29.9-17.78c9.19,3.16,23.28,4.7,31.48,5.37,1-8.07.9-28.09-26.65-14.31-5.37,2.68-8.53,4.84-10,6.56a21,21,0,0,0,5.17,2.38Zm44.21-9.12a66,66,0,0,1-1,20.24h0c0,.08,0,.15,0,.23-1.21,6.78-1.27,16.2-.2,26.78,1.77,17.44,6.59,37.67,14.4,54.15C709.22,450.4,719,462.33,731,464.57a23.32,23.32,0,0,0,6.6.26,46.09,46.09,0,0,0,6.22-1c17-4.1,27.35-17.89,33-35.55,6-18.75,6.72-41.78,4.59-62.81a205.93,205.93,0,0,0-4-24.85C737.46,308.69,700.49,326.34,688.74,333.54Z"/><path class="cls-1" d="M781.09,331.68a6.25,6.25,0,0,0,4,11.84c.11,0,38.43-13.15,49.19-2.09.39.41.58.66.59.79.06.58-.78,1.63-2.21,2.95a40.82,40.82,0,0,1-10,6.3c-11.56,5.48-26.66,9.06-33.92,7.74a6.24,6.24,0,1,0-2.2,12.28c9.51,1.73,28-2.31,41.46-8.72a52.8,52.8,0,0,0,13.18-8.45c4.26-4,6.63-8.46,6.12-13.37a13.66,13.66,0,0,0-4.07-8.23C826.94,316,781.22,331.63,781.09,331.68Z"/><path class="cls-1" d="M728.88,425.88a6.24,6.24,0,1,0-7.44,10l14.19,10.48v0a6.27,6.27,0,0,0,7.84-.32l13.79-10.19a6.24,6.24,0,1,0-7.44-10l-10.47,7.73Z"/><path class="cls-2" d="M705.35,368.66c5.83,3.37,9.24,8.37,7.62,11.18s-7.65,2.34-13.48-1-9.25-8.37-7.63-11.18S699.52,365.3,705.35,368.66Z"/><path class="cls-2" d="M757.48,368.66c-5.83,3.37-9.24,8.37-7.62,11.18s7.65,2.34,13.48-1,9.25-8.37,7.63-11.18S763.31,365.3,757.48,368.66Z"/><path class="cls-1" d="M423.78,514.21a6.27,6.27,0,0,0,0-12.53,66.87,66.87,0,0,1-66.89-66.88,6.27,6.27,0,0,0-12.53,0,79.41,79.41,0,0,0,79.42,79.41Z"/><path class="cls-1" d="M535.23,514.21a6.27,6.27,0,1,0,0-12.53,66.87,66.87,0,0,1-66.88-66.88,6.27,6.27,0,0,0-12.53,0,79.41,79.41,0,0,0,79.41,79.41Z"/><path class="cls-1" d="M646.69,514.21a6.27,6.27,0,1,0,0-12.53,66.87,66.87,0,0,1-66.88-66.88,6.27,6.27,0,0,0-12.53,0,79.41,79.41,0,0,0,79.41,79.41Z"/><path class="cls-1" d="M278,437.94A6.25,6.25,0,0,0,268,430.55c-.1.13-32.88,43.91-18.12,111.23l6.12-1.32-6.12,1.34a6.27,6.27,0,0,0,10.6,3l23.24-23.25a6.26,6.26,0,0,0-8.85-8.86L260,527.57C252.16,472.48,278,438.05,278,437.94Z"/><path class="cls-1" d="M587.29,579.24a6.24,6.24,0,0,0-12.48.25c.31,13.46-1.08,29-3.21,43.59-2.68,18.36-6.49,34.83-9.46,43.26l-25,71,5.89,2.08-5.9-2.08a6.24,6.24,0,0,0,.21,4.7l3.09,7.6-6.29,11.93h0a6.26,6.26,0,0,0,2.62,8.46,6.15,6.15,0,0,0,3.43.7l40.54.31v0a6.27,6.27,0,0,0,6.31-6.22,6.36,6.36,0,0,0-.68-2.88l-5.51-12.52c9.33-16.24,17.48-36.09,25.23-55,4.07-9.94,8-19.62,11.94-28.18a6.24,6.24,0,0,0-11.35-5.19c-4.05,8.89-8,18.62-12.14,28.62-8,19.41-16.34,39.84-25.8,55.72a6.26,6.26,0,0,0-.62,6.15l5.73-2.52-5.72,2.52,3,6.91-21.17-.15,2.67-5.06a6.25,6.25,0,0,0,.47-5.64h0l-3.39-8.36,24.27-68.81c3.2-9.08,7.25-26.49,10-45.61C586.18,609.84,587.62,593.57,587.29,579.24Z"/><path class="cls-1" d="M546.7,0c151,0,287.64,61.19,386.57,160.12s160.12,235.61,160.12,386.58S1032.2,834.33,933.27,933.27,697.66,1093.39,546.7,1093.39,259.06,1032.2,160.12,933.27,0,697.66,0,546.7,61.19,259.06,160.12,160.12,395.73,0,546.7,0ZM924.38,169C827.72,72.36,694.19,12.57,546.7,12.57S265.67,72.36,169,169,12.57,399.2,12.57,546.7,72.36,827.72,169,924.38,399.2,1080.82,546.7,1080.82s281-59.79,377.68-156.44,156.44-230.19,156.44-377.68S1021,265.67,924.38,169Z"/></g></g></svg>