<svg xmlns="http://www.w3.org/2000/svg" viewBox="0 0 1093.39 1093.39"><defs><style>.cls-1{fill:#00ae81;}</style></defs><title>Asset 86</title><g id="Layer_2" data-name="Layer 2"><g id="Layer_1-2" data-name="Layer 1"><path class="cls-1" d="M335.37,264.81c-48,89.24-28.82,178.7-9.44,269.05,20.61,96.13,41.43,193.23-14.05,294.73H751.41c56.76-112.48,36.16-204.23,16.07-293.71-19.39-86.37-38.32-170.69,9.16-270.07ZM307.58,537.75c-20.4-95.12-40.59-189.28,13.65-286a9.41,9.41,0,0,1,8.64-5.7H791.73a9.41,9.41,0,0,1,8.43,13.82l-8.29-4.42,8.26,4.41c-52.92,99.28-33.89,184-14.37,271,21.08,93.89,42.7,190.21-19.93,310.71a9.4,9.4,0,0,1-8.72,5.9H295.68a9.26,9.26,0,0,1-5-1.4,9.4,9.4,0,0,1-3.07-12.93l8,4.93-8-4.92C349.41,732.82,328.38,634.77,307.58,537.75Z"/><path class="cls-1" d="M594.63,425.94a35.4,35.4,0,0,1-3.12,15,33.39,33.39,0,0,1-8.93,11.59,44,44,0,0,1-14.09,7.7,67.39,67.39,0,0,1-18.62,3.41L547.58,486a4.21,4.21,0,0,1-.35,1.16,2,2,0,0,1-1,.95,7.13,7.13,0,0,1-2,.56,21.41,21.41,0,0,1-3.34.21,20.36,20.36,0,0,1-3.76-.28,8.78,8.78,0,0,1-2.21-.6,1.89,1.89,0,0,1-1.09-1,2.44,2.44,0,0,1,0-1.52l2.35-22.24A88,88,0,0,1,527,461.6c-2.81-.67-5.3-1.37-7.51-2.11a39.41,39.41,0,0,1-5.59-2.38,15.4,15.4,0,0,1-3.41-2.29A5.9,5.9,0,0,1,509,452a21.6,21.6,0,0,1-.42-4.84,28.06,28.06,0,0,1,.21-3.76,12.13,12.13,0,0,1,.6-2.46,2.51,2.51,0,0,1,1.09-1.34,3.4,3.4,0,0,1,1.62-.35,8.39,8.39,0,0,1,3.79,1.48,63,63,0,0,0,6.54,3.3,66,66,0,0,0,9.94,3.34,56.37,56.37,0,0,0,14.09,1.54c9.73,0,17.15-1.93,22.17-5.76a18.59,18.59,0,0,0,7.59-15.64,17.79,17.79,0,0,0-2.77-10.15,25.91,25.91,0,0,0-7.38-7,50.78,50.78,0,0,0-10.4-5.06c-3.87-1.41-7.8-2.81-11.84-4.25a128,128,0,0,1-11.85-5,43.28,43.28,0,0,1-10.33-6.88,31.7,31.7,0,0,1-7.3-10.05c-1.87-3.94-2.78-8.79-2.78-14.55a34.73,34.73,0,0,1,2.35-12.89,29.46,29.46,0,0,1,7.1-10.44A37.11,37.11,0,0,1,533,334a55.58,55.58,0,0,1,16.79-3.44l2-20.8a4.68,4.68,0,0,1,.39-1.2,2.07,2.07,0,0,1,.95-.95,5.34,5.34,0,0,1,2-.59c.85-.07,2-.14,3.41-.14a28.06,28.06,0,0,1,3.76.21,5.78,5.78,0,0,1,2.25.67,2,2,0,0,1,1,1.08,4.32,4.32,0,0,1,.22,1.44l-2.29,20.59a60.37,60.37,0,0,1,6.47,1.06c2.21.53,4.32,1.12,6.25,1.76a39.57,39.57,0,0,1,5.31,2.17,13,13,0,0,1,3.23,2,5.61,5.61,0,0,1,1.26,1.54,9.08,9.08,0,0,1,.57,1.65c.14.6.24,1.34.35,2.15a23.5,23.5,0,0,1,.14,2.77,33.8,33.8,0,0,1-.14,3.41,9.53,9.53,0,0,1-.46,2.25,2.94,2.94,0,0,1-.84,1.27,2,2,0,0,1-1.23.38,8.59,8.59,0,0,1-3.59-1.33c-1.65-.88-3.72-1.83-6.25-2.89a82.41,82.41,0,0,0-8.68-2.88,43.13,43.13,0,0,0-11-1.33A46,46,0,0,0,543,346.14a22.4,22.4,0,0,0-7.94,3.76,14.57,14.57,0,0,0-4.43,5.84,19.48,19.48,0,0,0-1.37,7.41,18.07,18.07,0,0,0,2.81,10.3,25.47,25.47,0,0,0,7.41,7A53.15,53.15,0,0,0,550,385.36c3.9,1.37,7.91,2.81,12,4.28s8.08,3.1,12,4.89a40.36,40.36,0,0,1,10.47,6.81,31.9,31.9,0,0,1,7.41,10A34.06,34.06,0,0,1,594.63,425.94Z"/><path class="cls-1" d="M390.44,534.49a9.4,9.4,0,1,0,0,18.79H705.8a9.4,9.4,0,1,0,0-18.79Z"/><path class="cls-1" d="M400.75,615.38a9.4,9.4,0,0,0,0,18.8h315.4a9.4,9.4,0,0,0,0-18.8Z"/><path class="cls-1" d="M403.4,696.28a9.4,9.4,0,0,0,0,18.79H717.78a9.4,9.4,0,1,0,0-18.79Z"/><path class="cls-1" d="M392,777.17A9.4,9.4,0,0,0,392,796H706a9.4,9.4,0,0,0,0-18.79Z"/><path class="cls-1" d="M546.7,0c151,0,287.63,61.19,386.57,160.12s160.12,235.61,160.12,386.58S1032.2,834.34,933.27,933.27,697.66,1093.39,546.7,1093.39,259.06,1032.2,160.12,933.27,0,697.66,0,546.7,61.19,259.06,160.12,160.12,395.73,0,546.7,0ZM924.38,169C827.72,72.36,694.19,12.57,546.7,12.57S265.67,72.36,169,169,12.57,399.2,12.57,546.7,72.36,827.72,169,924.38,399.2,1080.82,546.7,1080.82s281-59.79,377.68-156.44,156.44-230.19,156.44-377.68S1021,265.67,924.38,169Z"/></g></g></svg>