<svg xmlns="http://www.w3.org/2000/svg" viewBox="0 0 1093.39 1093.39"><defs><style>.cls-1{fill:#00ae81;}</style></defs><title>Asset 90</title><g id="Layer_2" data-name="Layer 2"><g id="Layer_1-2" data-name="Layer 1"><path class="cls-1" d="M700.12,523.5a106.13,106.13,0,1,1-75,31.08,105.81,105.81,0,0,1,75-31.08Zm66.19,39.94a93.6,93.6,0,1,0,27.42,66.19A93.3,93.3,0,0,0,766.31,563.44Z"/><path class="cls-1" d="M699.36,689.74V677.8a43.91,43.91,0,0,1-14.57-4,25.51,25.51,0,0,1-9.69-9.33,33.24,33.24,0,0,1-4.73-15.72l12-2.26q1.39,9.62,4.91,14.13c3.36,4.26,7.39,6.61,12.08,7.09v-38A49.93,49.93,0,0,1,684.29,624a22.13,22.13,0,0,1-8.78-8.83,26.18,26.18,0,0,1-3.08-12.8q0-12.74,9-20.63,6-5.33,17.92-6.5v-5.7h7v5.7c6.93.66,12.45,2.7,16.51,6.09,5.23,4.33,8.35,10.29,9.42,17.85L720,601q-1.07-7-4.42-10.78a16.2,16.2,0,0,0-9.17-4.94v34.42a96.5,96.5,0,0,1,11.93,3.54,29.33,29.33,0,0,1,9.08,6,23.91,23.91,0,0,1,5.42,8.36,28.46,28.46,0,0,1,1.9,10.49c0,8.28-2.65,15.17-7.9,20.69s-12.07,8.5-20.43,8.91v12.07Zm0-104.57a17.65,17.65,0,0,0-11,5.58,16.58,16.58,0,0,0-.59,20.9q3.44,4.11,11.58,6.57V585.17Zm7,82.53a17.69,17.69,0,0,0,11.5-6,18.7,18.7,0,0,0,4.56-12.82c0-4.33-1.09-7.81-3.22-10.44s-6.43-5-12.84-7.07Z"/><path class="cls-1" d="M700.12,482.38A147.26,147.26,0,1,1,596,525.51a146.79,146.79,0,0,1,104.12-43.13Zm95.27,52a134.74,134.74,0,1,0,39.46,95.27A134.3,134.3,0,0,0,795.39,534.36Z"/><path class="cls-1" d="M393.27,342.45c28.53,0,54.48,5.69,73.35,14.9,20.25,9.87,32.78,24,32.78,40.06s-12.53,30.19-32.78,40.07c-18.87,9.2-44.82,14.9-73.35,14.9s-54.48-5.7-73.36-14.9c-20.25-9.88-32.78-24-32.78-40.07s12.53-30.19,32.78-40.06c18.88-9.21,44.82-14.9,73.36-14.9Zm67.87,26.16C443.88,360.19,419.89,355,393.27,355s-50.61,5.21-67.88,13.63c-15.89,7.75-25.73,18-25.73,28.8s9.84,21.06,25.73,28.81c17.27,8.42,41.26,13.63,67.88,13.63s50.61-5.21,67.87-13.63c15.9-7.75,25.73-18,25.73-28.81S477,376.36,461.14,368.61Z"/><path class="cls-1" d="M391.11,414.2V399.49q-13-2-19.09-6c-4-2.66-6.07-5.89-6.07-9.68s2.29-7.06,6.87-9.67,10.69-4.11,18.29-4.52v-3.48h9.61v3.48q10.56.68,16.8,3.81c4.15,2.1,6.79,4.9,8,8.42l-16.78,1.16q-1.53-4.16-8-5.62v13.73c10.62,1.52,17.87,3.5,21.69,5.92s5.78,5.53,5.78,9.33c0,4.23-2.43,7.8-7.25,10.7s-11.59,4.69-20.22,5.35V429h-9.61v-6.4q-11.48-.74-18.66-4.54c-4.77-2.51-7.81-6.09-9.14-10.7l17.32-1a10.39,10.39,0,0,0,4,4.84,19.58,19.58,0,0,0,6.49,2.95Zm0-36.88a15.28,15.28,0,0,0-6.25,2.39,4.69,4.69,0,0,0-2.31,3.72,4.45,4.45,0,0,0,2.11,3.46,17.62,17.62,0,0,0,6.45,2.59V377.32Zm9.61,37.37a18.63,18.63,0,0,0,8.1-2.43c2.09-1.31,3.13-2.83,3.13-4.6,0-1.57-.88-2.91-2.63-4.05s-4.62-2-8.6-2.61Z"/><path class="cls-1" d="M393.27,316.51c40,0,76.23,8.63,102.6,22.59,27.59,14.61,44.65,35.2,44.65,58.31s-17.06,43.71-44.65,58.31c-26.37,14-62.65,22.6-102.6,22.6s-76.24-8.64-102.61-22.6C263.07,441.12,246,420.53,246,397.41s17.07-43.7,44.65-58.31c26.37-14,62.66-22.59,102.61-22.59Zm96.78,33.65C465.39,337.11,431.18,329,393.27,329s-72.13,8.07-96.79,21.12c-23.44,12.41-37.94,29.15-37.94,47.25s14.5,34.84,37.94,47.25c24.66,13.06,58.87,21.13,96.79,21.13s72.12-8.07,96.78-21.13C513.49,432.25,528,415.52,528,397.41S513.49,362.57,490.05,350.16Z"/><path class="cls-1" d="M531.41,418.82a55.72,55.72,0,0,1,6.77,13.8,47.07,47.07,0,0,1,2.34,14.55c0,23.12-17.06,43.71-44.65,58.31-26.37,14-62.65,22.6-102.6,22.6s-76.24-8.64-102.61-22.6C263.08,490.88,246,470.29,246,447.17a47.07,47.07,0,0,1,2.34-14.55,55.72,55.72,0,0,1,6.77-13.8l5.19-7.77,5.19,7.77c9.08,13.6,26.27,25.36,48.66,33.74s49.56,13.23,79.11,13.23,56.83-4.9,79.1-13.23S512,432.42,521,418.82l5.18-7.77,5.19,7.77Zm-5.12,17.62c-.3-.94-.65-1.88-1-2.81-11.14,12.38-27.94,22.92-48.53,30.62-23.67,8.86-52.47,14.07-83.46,14.07s-59.79-5.21-83.46-14.07c-20.6-7.7-37.39-18.24-48.54-30.62-.38.93-.72,1.87-1,2.81a34.7,34.7,0,0,0-1.7,10.73c0,18.11,14.5,34.84,37.94,47.25,24.66,13.06,58.87,21.13,96.79,21.13s72.12-8.07,96.78-21.13C513.49,482,528,465.28,528,447.17A34.7,34.7,0,0,0,526.29,436.44Z"/><path class="cls-1" d="M531.41,468.58a55.89,55.89,0,0,1,6.77,13.8,47.09,47.09,0,0,1,2.34,14.56c0,23.11-17.06,43.7-44.65,58.3-26.37,14-62.65,22.6-102.6,22.6s-76.24-8.63-102.61-22.6c-27.59-14.6-44.65-35.19-44.65-58.3a47.09,47.09,0,0,1,2.34-14.56,55.72,55.72,0,0,1,6.77-13.8l10.38,6.95a43,43,0,0,0-5.26,10.67,34.72,34.72,0,0,0-1.7,10.74c0,18.1,14.5,34.83,37.94,47.24,24.66,13.06,58.87,21.13,96.79,21.13s72.12-8.07,96.78-21.13C513.49,531.77,528,515,528,496.94a34.72,34.72,0,0,0-1.7-10.74A43.31,43.31,0,0,0,521,475.53Z"/><path class="cls-1" d="M531.41,518.34a55.78,55.78,0,0,1,6.77,13.81,47,47,0,0,1,2.34,14.55c0,23.11-17.06,43.7-44.65,58.31-26.37,14-62.65,22.59-102.6,22.59S317,619,290.66,605C263.07,590.4,246,569.81,246,546.7a47,47,0,0,1,2.34-14.55,55.78,55.78,0,0,1,6.77-13.81l10.38,6.95A43.17,43.17,0,0,0,260.24,536a34.72,34.72,0,0,0-1.7,10.74c0,18.1,14.5,34.84,37.94,47.25,24.66,13,58.87,21.12,96.79,21.12S465.39,607,490.05,594C513.49,581.54,528,564.8,528,546.7a34.72,34.72,0,0,0-1.7-10.74A43.48,43.48,0,0,0,521,525.29Z"/><path class="cls-1" d="M531.41,568.1a55.78,55.78,0,0,1,6.77,13.81,47,47,0,0,1,2.34,14.55c0,23.11-17.06,43.7-44.65,58.31-26.37,14-62.65,22.59-102.6,22.59S317,668.73,290.66,654.77C263.07,640.16,246,619.57,246,596.46a47,47,0,0,1,2.34-14.55,55.78,55.78,0,0,1,6.77-13.81l10.38,6.95a43.17,43.17,0,0,0-5.26,10.67,34.72,34.72,0,0,0-1.7,10.74c0,18.11,14.5,34.84,37.94,47.25,24.66,13,58.87,21.12,96.79,21.12s72.12-8.07,96.78-21.12C513.49,631.3,528,614.57,528,596.46a34.72,34.72,0,0,0-1.7-10.74A43.48,43.48,0,0,0,521,575.05Z"/><path class="cls-1" d="M531.41,617.86a55.78,55.78,0,0,1,6.77,13.81,47,47,0,0,1,2.34,14.55c0,23.11-17.06,43.7-44.65,58.31-26.37,14-62.65,22.59-102.6,22.59S317,718.49,290.66,704.53C263.07,689.92,246,669.33,246,646.22a47,47,0,0,1,2.34-14.55,55.78,55.78,0,0,1,6.77-13.81l10.38,6.95a43.17,43.17,0,0,0-5.26,10.67,34.72,34.72,0,0,0-1.7,10.74c0,18.11,14.5,34.84,37.94,47.25,24.66,13,58.87,21.12,96.79,21.12s72.12-8.07,96.78-21.12C513.49,681.06,528,664.33,528,646.22a34.77,34.77,0,0,0-1.7-10.74A43.65,43.65,0,0,0,521,624.81Z"/><path class="cls-1" d="M531.41,667.62a56,56,0,0,1,6.77,13.81A47,47,0,0,1,540.52,696c0,23.11-17.06,43.7-44.65,58.31-26.37,14-62.65,22.59-102.6,22.59S317,768.25,290.66,754.29C263.08,739.68,246,719.09,246,696a47,47,0,0,1,2.34-14.55,56,56,0,0,1,6.77-13.81l10.38,7a43.17,43.17,0,0,0-5.26,10.67,34.77,34.77,0,0,0-1.7,10.74c0,18.11,14.5,34.84,37.94,47.25,24.66,13,58.87,21.13,96.79,21.13s72.12-8.08,96.78-21.13C513.49,730.82,528,714.09,528,696a34.77,34.77,0,0,0-1.7-10.74A43.65,43.65,0,0,0,521,674.57Z"/><path class="cls-1" d="M546.7,0c151,0,287.63,61.19,386.57,160.12s160.12,235.61,160.12,386.58S1032.2,834.34,933.27,933.27,697.66,1093.39,546.7,1093.39,259.06,1032.2,160.12,933.27,0,697.66,0,546.7,61.19,259.06,160.12,160.12,395.73,0,546.7,0ZM924.38,169C827.72,72.36,694.19,12.57,546.7,12.57S265.67,72.36,169,169,12.57,399.2,12.57,546.7,72.36,827.72,169,924.38,399.2,1080.82,546.7,1080.82s281-59.79,377.68-156.44,156.44-230.19,156.44-377.68S1021,265.67,924.38,169Z"/></g></g></svg>