<svg xmlns="http://www.w3.org/2000/svg" viewBox="0 0 1093.39 1093.39"><defs><style>.cls-1{fill:#00ae81;}</style></defs><title>Asset 83</title><g id="Layer_2" data-name="Layer 2"><g id="Layer_1-2" data-name="Layer 1"><path class="cls-1" d="M267.63,408.25H825.76A21.58,21.58,0,0,1,841,414.59l0,0a21.58,21.58,0,0,1,6.36,15.25V717.54A21.58,21.58,0,0,1,841,732.79l0,0a21.58,21.58,0,0,1-15.28,6.34H267.63a21.57,21.57,0,0,1-15.24-6.34l0,0v0A21.54,21.54,0,0,1,246,717.54V429.86a21.54,21.54,0,0,1,6.35-15.23v0l0,0a21.57,21.57,0,0,1,15.24-6.34Zm558.13,19.94H267.63a1.68,1.68,0,0,0-1.18.46l0,0a1.62,1.62,0,0,0-.47,1.17V717.54a1.62,1.62,0,0,0,.47,1.17l0,0a1.64,1.64,0,0,0,1.18.46H825.76a1.67,1.67,0,0,0,1.18-.5h0a1.65,1.65,0,0,0,.46-1.17V429.86a1.65,1.65,0,0,0-.46-1.17h0A1.67,1.67,0,0,0,825.76,428.19Z"/><path class="cls-1" d="M702.67,473.68a54.35,54.35,0,1,1-38.43,15.92,54.16,54.16,0,0,1,38.43-15.92Zm24.33,30A34.4,34.4,0,1,0,737.08,528,34.3,34.3,0,0,0,727,503.7Z"/><path class="cls-1" d="M745.59,571.67a63.77,63.77,0,0,1,49.93,62v30.07a10,10,0,0,1-10,10H619.78a10,10,0,0,1-10-10V633.68a63.79,63.79,0,0,1,50.83-62.2v0A10,10,0,0,1,672,577.64a34.47,34.47,0,0,0,61.79-.71l9,4.29-9-4.32a10,10,0,0,1,11.88-5.23Zm20.18,34.51a44,44,0,0,0-18.4-13.29,54.28,54.28,0,0,1-89.4,0,44,44,0,0,0-18.4,13.29,43.32,43.32,0,0,0-9.81,27.5v20.1H775.58v-20.1A43.32,43.32,0,0,0,765.77,606.18Z"/><path class="cls-1" d="M307.84,490.3a10,10,0,1,0,0,19.94H541a10,10,0,1,0,0-19.94Z"/><path class="cls-1" d="M307.84,571.6a10,10,0,0,0,0,19.94H541a10,10,0,0,0,0-19.94Z"/><path class="cls-1" d="M307.84,652.9a10,10,0,1,0,0,19.94H541a10,10,0,0,0,0-19.94Z"/><path class="cls-1" d="M481.88,408.25H611.51V374.18H481.88v34.07Zm139.6,19.94H471.91a10,10,0,0,1-10-10v-54a10,10,0,0,1,10-10H621.48a10,10,0,0,1,10,10v54A10,10,0,0,1,621.48,428.19Z"/><path class="cls-1" d="M546.7,0c151,0,287.63,61.19,386.57,160.12s160.12,235.61,160.12,386.58S1032.2,834.34,933.27,933.27,697.66,1093.39,546.7,1093.39,259.06,1032.2,160.12,933.27,0,697.66,0,546.7,61.19,259.06,160.12,160.12,395.73,0,546.7,0ZM924.38,169C827.72,72.36,694.19,12.57,546.7,12.57S265.67,72.36,169,169,12.57,399.2,12.57,546.7,72.36,827.72,169,924.38,399.2,1080.82,546.7,1080.82s281-59.79,377.68-156.44,156.44-230.19,156.44-377.68S1021,265.67,924.38,169Z"/></g></g></svg>