<svg xmlns="http://www.w3.org/2000/svg" viewBox="0 0 1093.39 1093.39"><defs><style>.cls-1{fill:#00ae81;}</style></defs><title>Asset 79</title><g id="Layer_2" data-name="Layer 2"><g id="Layer_1-2" data-name="Layer 1"><path class="cls-1" d="M252.41,378h595V715.38H246V378ZM834.58,390.8H258.81V702.59H834.58Z"/><path class="cls-1" d="M342.11,384.41a91.19,91.19,0,0,1-78.5,90.26,92.8,92.8,0,0,1-11.1.87l-.2-12.75a79.19,79.19,0,0,0,9.55-.77,78.56,78.56,0,0,0,51.23-29.83,78.49,78.49,0,0,0,16.28-47.78Z"/><path class="cls-1" d="M764,384.41a78.39,78.39,0,0,0,58.11,75.69,77.49,77.49,0,0,0,9.39,1.92,79.36,79.36,0,0,0,9.55.77l-.2,12.75a93.12,93.12,0,0,1-11.1-.87,91.17,91.17,0,0,1-78.5-90.26Z"/><path class="cls-1" d="M329.37,709a78.42,78.42,0,0,0-58.11-75.7,77.64,77.64,0,0,0-9.4-1.92,79.19,79.19,0,0,0-9.55-.77l.2-12.74A91.13,91.13,0,0,1,342.11,709Z"/><path class="cls-1" d="M751.28,709a91.07,91.07,0,0,1,89.6-91.13l.2,12.74a79.36,79.36,0,0,0-9.55.77A78.62,78.62,0,0,0,780.3,661.2,78.49,78.49,0,0,0,764,709Z"/><path class="cls-1" d="M546.7,416.26a130.46,130.46,0,1,1-92.23,38.21,130,130,0,0,1,92.23-38.21Zm83.18,47.25a117.66,117.66,0,1,0,34.45,83.19A117.31,117.31,0,0,0,629.88,463.51Z"/><path class="cls-1" d="M599.76,601.44a6.38,6.38,0,1,0-8.3-9.69,59.17,59.17,0,1,1,.07-90.05,6.38,6.38,0,0,0,8.29-9.7,72,72,0,1,0-.06,109.44Z"/><path class="cls-1" d="M471.53,527.27a6.4,6.4,0,0,0,0,12.79h86.2a6.4,6.4,0,1,0,0-12.79Z"/><path class="cls-1" d="M471.53,557.59a6.4,6.4,0,0,0,0,12.8h86.2a6.4,6.4,0,0,0,0-12.8Z"/><path class="cls-1" d="M546.7,0c151,0,287.63,61.19,386.57,160.12s160.12,235.61,160.12,386.58S1032.2,834.34,933.27,933.27,697.66,1093.39,546.7,1093.39,259.06,1032.2,160.12,933.27,0,697.66,0,546.7,61.19,259.06,160.12,160.12,395.73,0,546.7,0ZM924.38,169C827.72,72.36,694.19,12.57,546.7,12.57S265.67,72.36,169,169,12.57,399.2,12.57,546.7,72.36,827.72,169,924.38,399.2,1080.82,546.7,1080.82s281-59.79,377.68-156.44,156.44-230.19,156.44-377.68S1021,265.67,924.38,169Z"/></g></g></svg>