<svg xmlns="http://www.w3.org/2000/svg" viewBox="0 0 1093.39 1093.39"><defs><style>.cls-1{fill:#00ae81;}</style></defs><title>Asset 91</title><g id="Layer_2" data-name="Layer 2"><g id="Layer_1-2" data-name="Layer 1"><path class="cls-1" d="M618.15,247.68a305.16,305.16,0,0,1,89.43,37.1l6.11,3.76-4.63,5.51c-19.15,22.79-31.63,47.17-36.2,68.78-4.27,20.14-1.55,37.6,9.28,48.42s28.29,13.55,48.44,9.29c21.56-4.57,45.92-17.06,68.74-36.22l5.52-4.64,3.78,6.15a305.93,305.93,0,0,1,37.07,89.41l1.67,7-7.2.62c-29.7,2.57-55.77,11-74.24,23-17.26,11.23-27.68,25.5-27.68,40.82s10.42,29.59,27.68,40.82c18.48,12,44.55,20.41,74.26,23l7.2.63-1.67,7a305.16,305.16,0,0,1-37.1,89.43l-3.76,6.11-5.52-4.63c-22.78-19.14-47.16-31.63-68.77-36.2-20.14-4.26-37.6-1.54-48.42,9.28s-13.55,28.29-9.29,48.44c4.57,21.56,17,45.93,36.22,68.74l4.64,5.52-6.15,3.78a305.93,305.93,0,0,1-89.41,37.07l-7,1.67-.62-7.19c-2.57-29.71-11-55.78-23-74.25-11.23-17.26-25.5-27.68-40.82-27.68s-29.59,10.43-40.82,27.69c-12,18.47-20.41,44.55-23,74.25l-.63,7.2-7-1.67a305.16,305.16,0,0,1-89.43-37.1l-6.11-3.76,4.63-5.51c19.14-22.79,31.63-47.17,36.2-68.77,4.26-20.15,1.54-37.61-9.28-48.43s-28.29-13.55-48.44-9.28c-21.56,4.56-45.93,17-68.74,36.22l-5.52,4.63-3.78-6.14a306.14,306.14,0,0,1-37.07-89.42l-1.67-7,7.19-.63c29.71-2.57,55.78-11,74.25-23,17.26-11.22,27.68-25.5,27.68-40.81s-10.43-29.6-27.68-40.82c-18.48-12-44.55-20.42-74.26-23l-7.2-.62,1.68-7a306.27,306.27,0,0,1,37.07-89.42l3.78-6.15,5.52,4.64c22.82,19.17,47.18,31.66,68.74,36.22,20.16,4.27,37.63,1.55,48.45-9.28s13.54-28.28,9.28-48.42v0c-4.56-21.55-17-45.92-36.22-68.74l-4.64-5.51,6.15-3.79a306.27,306.27,0,0,1,89.42-37.07l7-1.67.63,7.19c2.57,29.71,11,55.78,23,74.26,11.22,17.26,25.5,27.68,40.81,27.68s29.6-10.42,40.82-27.68c12-18.48,20.42-44.55,23-74.26l.63-7.2,7,1.67Zm41.4,26.47a291.56,291.56,0,0,0-37.38-12.61c-3.43,28.73-12.14,54.09-24.24,72.69-13.53,20.82-31.41,33.39-51.24,33.39s-37.7-12.57-51.23-33.38c-12.1-18.6-20.81-44-24.24-72.69a291.9,291.9,0,0,0-37.37,12.6,296,296,0,0,0-35.41,17.57c17.89,22.74,29.66,46.83,34.26,68.53h0c5.13,24.27,1.37,45.8-12.65,59.82s-35.53,17.77-59.79,12.64c-21.71-4.6-45.8-16.37-68.55-34.26a292.09,292.09,0,0,0-30.18,72.77c28.73,3.43,54.09,12.14,72.69,24.24,20.82,13.54,33.38,31.41,33.38,51.24s-12.56,37.69-33.37,51.23c-18.6,12.1-44,20.81-72.69,24.24a291.92,291.92,0,0,0,30.18,72.77c22.75-17.89,46.84-29.66,68.54-34.26,24.27-5.13,45.78-1.37,59.79,12.65s17.78,35.54,12.65,59.82c-4.59,21.67-16.38,45.76-34.3,68.53a292.25,292.25,0,0,0,72.81,30.17c3.43-28.73,12.13-54.09,24.23-72.69,13.54-20.81,31.42-33.38,51.24-33.38s37.7,12.56,51.24,33.37c12.1,18.6,20.81,44,24.24,72.69a291.92,291.92,0,0,0,72.77-30.18c-17.89-22.75-29.67-46.84-34.26-68.54-5.13-24.27-1.37-45.78,12.64-59.79s35.55-17.78,59.83-12.65c21.67,4.59,45.75,16.38,68.53,34.3a294.75,294.75,0,0,0,17.56-35.43,291.56,291.56,0,0,0,12.61-37.38c-28.73-3.43-54.09-12.13-72.7-24.23-20.81-13.54-33.38-31.42-33.38-51.24s12.57-37.7,33.38-51.24c18.6-12.1,44-20.81,72.69-24.24a292.93,292.93,0,0,0-30.18-72.77c-22.75,17.89-46.84,29.67-68.55,34.26-24.26,5.13-45.77,1.37-59.79-12.64s-17.77-35.55-12.64-59.83c4.59-21.67,16.38-45.76,34.3-68.53A293.27,293.27,0,0,0,659.55,274.15Z"/><path class="cls-1" d="M546.7,453.2a93.52,93.52,0,1,1-66.11,27.39A93.22,93.22,0,0,1,546.7,453.2ZM604,489.4a81,81,0,1,0,23.74,57.3A80.78,80.78,0,0,0,604,489.4Z"/><path class="cls-1" d="M546.7,0c151,0,287.63,61.19,386.57,160.12s160.12,235.61,160.12,386.58S1032.2,834.34,933.27,933.27,697.66,1093.39,546.7,1093.39,259.06,1032.2,160.12,933.27,0,697.66,0,546.7,61.19,259.06,160.12,160.12,395.73,0,546.7,0ZM924.38,169C827.72,72.36,694.19,12.57,546.7,12.57S265.67,72.36,169,169,12.57,399.2,12.57,546.7,72.36,827.72,169,924.38,399.2,1080.82,546.7,1080.82s281-59.79,377.68-156.44,156.44-230.19,156.44-377.68S1021,265.67,924.38,169Z"/></g></g></svg>